<mxfile host="65bd71144e">
    <diagram id="TrJ-cGX0nUqC4cxM0rXz" name="Page-1">
        <mxGraphModel dx="1434" dy="961" grid="0" gridSize="10" guides="1" tooltips="1" connect="1" arrows="1" fold="1" page="0" pageScale="1" pageWidth="1169" pageHeight="827" background="#ffffff" math="0" shadow="0">
            <root>
                <mxCell id="0"/>
                <mxCell id="1" parent="0"/>
                <mxCell id="90" value="career_platform包" style="rounded=1;whiteSpace=wrap;html=1;fillColor=none;labelPosition=center;verticalLabelPosition=bottom;align=center;verticalAlign=top;strokeColor=#000000;fontColor=#333333;fontSize=16;arcSize=3;" parent="1" vertex="1">
                    <mxGeometry x="80" y="440" width="940" height="400" as="geometry"/>
                </mxCell>
                <mxCell id="56" value="common模块" style="rounded=1;whiteSpace=wrap;html=1;fillColor=none;labelPosition=center;verticalLabelPosition=bottom;align=center;verticalAlign=top;strokeColor=#666666;fontColor=#333333;fontSize=16;arcSize=8;" parent="1" vertex="1">
                    <mxGeometry x="120" y="480" width="240" height="160" as="geometry"/>
                </mxCell>
                <mxCell id="36" value="persistent模块" style="rounded=1;whiteSpace=wrap;html=1;fillColor=none;labelPosition=center;verticalLabelPosition=bottom;align=center;verticalAlign=top;strokeColor=#666666;fontColor=#333333;fontSize=16;arcSize=13;" parent="1" vertex="1">
                    <mxGeometry x="119" y="680" width="241" height="120" as="geometry"/>
                </mxCell>
                <mxCell id="58" value="algorithm模块" style="rounded=1;whiteSpace=wrap;html=1;fillColor=none;labelPosition=center;verticalLabelPosition=bottom;align=center;verticalAlign=top;strokeColor=#666666;fontColor=#333333;fontSize=16;arcSize=4;" parent="1" vertex="1">
                    <mxGeometry x="400" y="480" width="580" height="320" as="geometry"/>
                </mxCell>
                <mxCell id="59" value="Applications/Services" style="rounded=1;whiteSpace=wrap;html=1;fillColor=#f5f5f5;labelPosition=center;verticalLabelPosition=bottom;align=center;verticalAlign=top;strokeColor=#B5B5B5;fontColor=#B5B5B5;fontSize=16;" parent="1" vertex="1">
                    <mxGeometry x="80" y="320" width="940" height="80" as="geometry"/>
                </mxCell>
                <mxCell id="60" value="Data Sources" style="rounded=1;whiteSpace=wrap;html=1;fillColor=#f5f5f5;labelPosition=center;verticalLabelPosition=bottom;align=center;verticalAlign=top;strokeColor=#B5B5B5;fontColor=#B5B5B5;fontSize=16;" parent="1" vertex="1">
                    <mxGeometry x="80" y="880" width="940" height="80" as="geometry"/>
                </mxCell>
                <mxCell id="71" value="MySQL" style="shape=cylinder3;whiteSpace=wrap;html=1;boundedLbl=1;backgroundOutline=1;size=15;strokeColor=#B5B5B5;fillColor=#f5f5f5;fontColor=#B5B5B5;fontSize=12;" parent="1" vertex="1">
                    <mxGeometry x="160" y="886.25" width="50" height="67.5" as="geometry"/>
                </mxCell>
                <mxCell id="74" value="达梦" style="shape=cylinder3;whiteSpace=wrap;html=1;boundedLbl=1;backgroundOutline=1;size=15;strokeColor=#B5B5B5;fillColor=#f5f5f5;fontColor=#B5B5B5;fontSize=12;" parent="1" vertex="1">
                    <mxGeometry x="280" y="886.25" width="50" height="67.5" as="geometry"/>
                </mxCell>
                <mxCell id="75" value="Neo4j" style="shape=cylinder3;whiteSpace=wrap;html=1;boundedLbl=1;backgroundOutline=1;size=15;strokeColor=#B5B5B5;fillColor=#f5f5f5;fontColor=#B5B5B5;fontSize=12;" parent="1" vertex="1">
                    <mxGeometry x="570" y="886.25" width="50" height="67.5" as="geometry"/>
                </mxCell>
                <mxCell id="77" value="" style="shape=note2;size=14;childLayout=stackLayout;horizontalStack=0;resizeParent=1;resizeParentMax=0;resizeLast=0;collapsible=0;marginBottom=0;html=1;container=1;strokeColor=#B5B5B5;fillColor=#f5f5f5;fontColor=#B5B5B5;fontSize=12;" parent="1" vertex="1">
                    <mxGeometry x="400" y="895" width="41" height="50" as="geometry"/>
                </mxCell>
                <mxCell id="78" value="&amp;nbsp;&amp;nbsp;" style="text;html=1;strokeColor=none;fillColor=none;align=left;verticalAlign=middle;spacingLeft=4;spacingRight=4;overflow=hidden;rotatable=0;points=[[0,0.5],[1,0.5]];portConstraint=eastwest;fontColor=#B5B5B5;fontSize=12;" parent="77" vertex="1">
                    <mxGeometry width="41" height="25" as="geometry"/>
                </mxCell>
                <mxCell id="80" value="JSON" style="text;html=1;strokeColor=none;fillColor=none;align=center;verticalAlign=middle;spacingLeft=4;spacingRight=4;overflow=hidden;rotatable=0;points=[[0,0.5],[1,0.5]];portConstraint=eastwest;fontColor=#B5B5B5;fontSize=12;" parent="77" vertex="1">
                    <mxGeometry y="25" width="41" height="25" as="geometry"/>
                </mxCell>
                <mxCell id="94" value="Person类" style="rounded=0;whiteSpace=wrap;html=1;fontSize=11;fontColor=#0F0F0F;strokeColor=#B5B5B5;fillColor=none;" parent="1" vertex="1">
                    <mxGeometry x="140" y="500" width="90" height="29" as="geometry"/>
                </mxCell>
                <mxCell id="95" value="Experience类" style="rounded=0;whiteSpace=wrap;html=1;fontSize=11;fontColor=#0F0F0F;strokeColor=#B5B5B5;fillColor=none;" parent="1" vertex="1">
                    <mxGeometry x="140" y="545.5" width="90" height="29" as="geometry"/>
                </mxCell>
                <mxCell id="96" value="Label类" style="rounded=0;whiteSpace=wrap;html=1;fontSize=11;fontColor=#0F0F0F;strokeColor=#B5B5B5;fillColor=none;" parent="1" vertex="1">
                    <mxGeometry x="140" y="590" width="85.5" height="29" as="geometry"/>
                </mxCell>
                <mxCell id="97" value="Relationship类" style="rounded=0;whiteSpace=wrap;html=1;fontSize=11;fontColor=#0F0F0F;strokeColor=#B5B5B5;fillColor=none;" parent="1" vertex="1">
                    <mxGeometry x="250" y="500" width="90" height="29" as="geometry"/>
                </mxCell>
                <mxCell id="98" value="Relative类" style="rounded=0;whiteSpace=wrap;html=1;fontSize=11;fontColor=#0F0F0F;strokeColor=#B5B5B5;fillColor=none;" parent="1" vertex="1">
                    <mxGeometry x="250" y="545.5" width="90" height="29" as="geometry"/>
                </mxCell>
                <mxCell id="99" value="..." style="rounded=0;whiteSpace=wrap;html=1;fontSize=11;fontColor=#0F0F0F;strokeColor=#B5B5B5;fillColor=none;" parent="1" vertex="1">
                    <mxGeometry x="250" y="590" width="90" height="29" as="geometry"/>
                </mxCell>
                <mxCell id="103" value="Mappers" style="rounded=0;whiteSpace=wrap;html=1;fontSize=12;fontColor=#0F0F0F;strokeColor=#B5B5B5;fillColor=none;" parent="1" vertex="1">
                    <mxGeometry x="140" y="700" width="200" height="35" as="geometry"/>
                </mxCell>
                <mxCell id="104" value="Drivers" style="rounded=0;whiteSpace=wrap;html=1;fontSize=12;fontColor=#0F0F0F;strokeColor=#B5B5B5;fillColor=none;" parent="1" vertex="1">
                    <mxGeometry x="140" y="745" width="199.5" height="35" as="geometry"/>
                </mxCell>
                <mxCell id="106" value="exp_parser" style="shape=umlFrame;whiteSpace=wrap;html=1;width=73;height=19;boundedLbl=1;verticalAlign=middle;align=left;spacingLeft=5;fontSize=11;fillColor=none;strokeColor=#666666;fontColor=#0D0D0D;" parent="1" vertex="1">
                    <mxGeometry x="420" y="500" width="120" height="280" as="geometry"/>
                </mxCell>
                <mxCell id="109" value="person_parser" style="shape=umlFrame;whiteSpace=wrap;html=1;width=90;height=20;boundedLbl=1;verticalAlign=middle;align=left;spacingLeft=5;fontSize=11;fillColor=none;strokeColor=#666666;fontColor=#0D0D0D;" parent="1" vertex="1">
                    <mxGeometry x="560" y="500" width="120" height="280" as="geometry"/>
                </mxCell>
                <mxCell id="110" value="label" style="shape=umlFrame;whiteSpace=wrap;html=1;width=90;height=20;boundedLbl=1;verticalAlign=middle;align=left;spacingLeft=5;fontSize=11;fillColor=none;strokeColor=#666666;fontColor=#0D0D0D;" parent="1" vertex="1">
                    <mxGeometry x="700" y="500" width="120" height="280" as="geometry"/>
                </mxCell>
                <mxCell id="111" value="network" style="shape=umlFrame;whiteSpace=wrap;html=1;width=90;height=20;boundedLbl=1;verticalAlign=middle;align=left;spacingLeft=5;fontSize=11;fillColor=none;strokeColor=#666666;fontColor=#0D0D0D;" parent="1" vertex="1">
                    <mxGeometry x="840" y="500" width="120" height="280" as="geometry"/>
                </mxCell>
                <mxCell id="112" value="Service1" style="rounded=0;whiteSpace=wrap;html=1;fontSize=12;fontColor=#9E9E9E;strokeColor=#B5B5B5;fillColor=none;" parent="1" vertex="1">
                    <mxGeometry x="119" y="366" width="200" height="24" as="geometry"/>
                </mxCell>
                <mxCell id="113" value="Service2&lt;span style=&quot;font-family: monospace; font-size: 0px;&quot;&gt;%3CmxGraphModel%3E%3Croot%3E%3CmxCell%20id%3D%220%22%2F%3E%3CmxCell%20id%3D%221%22%20parent%3D%220%22%2F%3E%3CmxCell%20id%3D%222%22%20value%3D%22Service1%22%20style%3D%22rounded%3D0%3BwhiteSpace%3Dwrap%3Bhtml%3D1%3BfontSize%3D12%3BfontColor%3D%230F0F0F%3BstrokeColor%3D%23B5B5B5%3BfillColor%3Dnone%3B%22%20vertex%3D%221%22%20parent%3D%221%22%3E%3CmxGeometry%20x%3D%22119%22%20y%3D%22363%22%20width%3D%22200%22%20height%3D%2227%22%20as%3D%22geometry%22%2F%3E%3C%2FmxCell%3E%3C%2Froot%3E%3C%2FmxGraphModel%3E&lt;/span&gt;" style="rounded=0;whiteSpace=wrap;html=1;fontSize=12;fontColor=#9E9E9E;strokeColor=#B5B5B5;fillColor=none;" parent="1" vertex="1">
                    <mxGeometry x="339.5" y="366" width="200" height="24" as="geometry"/>
                </mxCell>
                <mxCell id="114" value="Service3" style="rounded=0;whiteSpace=wrap;html=1;fontSize=12;fontColor=#9E9E9E;strokeColor=#B5B5B5;fillColor=none;" parent="1" vertex="1">
                    <mxGeometry x="560" y="366" width="200" height="24" as="geometry"/>
                </mxCell>
                <mxCell id="115" value="。。。" style="rounded=0;whiteSpace=wrap;html=1;fontSize=12;fontColor=#9E9E9E;strokeColor=#B5B5B5;fillColor=none;" parent="1" vertex="1">
                    <mxGeometry x="780" y="366" width="200" height="24" as="geometry"/>
                </mxCell>
                <mxCell id="116" value="Controllers" style="rounded=0;whiteSpace=wrap;html=1;fontSize=12;fontColor=#9E9E9E;strokeColor=#B5B5B5;fillColor=none;" parent="1" vertex="1">
                    <mxGeometry x="119" y="330" width="861" height="24" as="geometry"/>
                </mxCell>
                <mxCell id="117" value="。。。" style="rounded=0;whiteSpace=wrap;html=1;fontSize=21;fontColor=#9E9E9E;strokeColor=none;fillColor=none;" parent="1" vertex="1">
                    <mxGeometry x="722" y="903" width="200" height="24" as="geometry"/>
                </mxCell>
                <mxCell id="118" value="经历解析工具集" style="rounded=0;whiteSpace=wrap;html=1;fontSize=11;fontColor=#0F0F0F;strokeColor=none;fillColor=none;" parent="1" vertex="1">
                    <mxGeometry x="444" y="625.5" width="79.5" height="29" as="geometry"/>
                </mxCell>
                <mxCell id="119" value="个人信息解析工具集" style="rounded=0;whiteSpace=wrap;html=1;fontSize=11;fontColor=#0F0F0F;strokeColor=none;fillColor=none;" parent="1" vertex="1">
                    <mxGeometry x="568" y="625.5" width="106" height="29" as="geometry"/>
                </mxCell>
                <mxCell id="120" value="标注工具集" style="rounded=0;whiteSpace=wrap;html=1;fontSize=11;fontColor=#0F0F0F;strokeColor=none;fillColor=none;" parent="1" vertex="1">
                    <mxGeometry x="720.25" y="625.5" width="79.5" height="29" as="geometry"/>
                </mxCell>
                <mxCell id="121" value="组织架构&lt;br&gt;&amp;amp;&lt;br&gt;关系网络工具集" style="rounded=0;whiteSpace=wrap;html=1;fontSize=11;fontColor=#0F0F0F;strokeColor=none;fillColor=none;" parent="1" vertex="1">
                    <mxGeometry x="860.25" y="625.5" width="79.5" height="29" as="geometry"/>
                </mxCell>
            </root>
        </mxGraphModel>
    </diagram>
</mxfile>